<svg id="Capa_1" data-name="Capa 1" xmlns="http://www.w3.org/2000/svg" xmlns:xlink="http://www.w3.org/1999/xlink" viewBox="0 0 841.89 242.74"><defs><style>.cls-1{fill:none;}.cls-2{fill:#010307;}.cls-3{clip-path:url(#clip-path);}.cls-4{fill:url(#Degradado_sin_nombre_2);}.cls-5{clip-path:url(#clip-path-2);}.cls-6{fill:url(#Degradado_sin_nombre_2-2);}.cls-7{clip-path:url(#clip-path-3);}.cls-8{fill:url(#Degradado_sin_nombre_2-3);}.cls-9{clip-path:url(#clip-path-4);}.cls-10{fill:url(#Degradado_sin_nombre_2-4);}.cls-11{clip-path:url(#clip-path-5);}.cls-12{fill:url(#Degradado_sin_nombre_5);}.cls-13{clip-path:url(#clip-path-6);}.cls-14{fill:url(#Degradado_sin_nombre_5-2);}.cls-15{clip-path:url(#clip-path-7);}.cls-16{fill:url(#Degradado_sin_nombre_5-3);}.cls-17{clip-path:url(#clip-path-8);}.cls-18{fill:url(#Degradado_sin_nombre_5-4);}.cls-19{clip-path:url(#clip-path-9);}.cls-20{fill:url(#Degradado_sin_nombre_10);}.cls-21{clip-path:url(#clip-path-10);}.cls-22{fill:url(#Degradado_sin_nombre_10-2);}.cls-23{clip-path:url(#clip-path-11);}.cls-24{fill:url(#Degradado_sin_nombre_10-3);}.cls-25{clip-path:url(#clip-path-12);}.cls-26{fill:url(#Degradado_sin_nombre_10-4);}.cls-27{clip-path:url(#clip-path-13);}.cls-28{fill:url(#Degradado_sin_nombre_13);}.cls-29{clip-path:url(#clip-path-14);}.cls-30{fill:url(#Degradado_sin_nombre_13-2);}.cls-31{clip-path:url(#clip-path-15);}.cls-32{fill:url(#Degradado_sin_nombre_13-3);}.cls-33{clip-path:url(#clip-path-16);}.cls-34{fill:url(#Degradado_sin_nombre_13-4);}.cls-35{clip-path:url(#clip-path-17);}.cls-36{fill:url(#Degradado_sin_nombre_17);}.cls-37{clip-path:url(#clip-path-18);}.cls-38{fill:url(#Degradado_sin_nombre_18);}.cls-39{clip-path:url(#clip-path-19);}.cls-40{fill:url(#Degradado_sin_nombre_19);}.cls-41{clip-path:url(#clip-path-20);}.cls-42{fill:url(#Degradado_sin_nombre_20);}</style><clipPath id="clip-path"><path class="cls-1" d="M118.88,53.15c-1,1.52-6.88,8.95-18.06,11.75S80.74,64,77.1,61.53C52.17,46.41,23.63,23.85,23.63,23.85l91.5,90.88L147.65-7.2s-12.5,38.79-28.78,60.35"/></clipPath><radialGradient id="Degradado_sin_nombre_2" cx="-565.07" cy="522.69" r="4.6" gradientTransform="matrix(13.01, 0, 0, -13.01, 7471.19, 6855.24)" gradientUnits="userSpaceOnUse"><stop offset="0" stop-color="#cd5b37"/><stop offset="0.32" stop-color="#cd5b37"/><stop offset="0.59" stop-color="#d5773d"/><stop offset="1" stop-color="#e4a947"/></radialGradient><clipPath id="clip-path-2"><path class="cls-1" d="M91.73,28.22a16,16,0,1,0,3.87-.48,15.76,15.76,0,0,0-3.87.48"/></clipPath><radialGradient id="Degradado_sin_nombre_2-2" cx="-463.43" cy="474.41" r="4.6" gradientTransform="matrix(3.5, 0, 0, -3.5, 1719.88, 1706.24)" xlink:href="#Degradado_sin_nombre_2"/><clipPath id="clip-path-3"><path class="cls-1" d="M116.94,82.47a16.71,16.71,0,0,1-9.5,6.21A16,16,0,0,1,95,86.87c-13.14-8.05-28.18-20-28.18-20L115,115.12,132,50.5s-6.54,20.56-15.08,32"/></clipPath><radialGradient id="Degradado_sin_nombre_2-3" cx="-533.23" cy="503.37" r="4.6" gradientTransform="matrix(6.87, 0, 0, -6.87, 3780.92, 3541.84)" xlink:href="#Degradado_sin_nombre_2"/><clipPath id="clip-path-4"><path class="cls-1" d="M116,97.85a8.78,8.78,0,0,1-5,3.28,8.46,8.46,0,0,1-6.58-1A178.51,178.51,0,0,1,89.57,89.6L115,115.05,124,81s-3.44,10.83-8,16.85"/></clipPath><radialGradient id="Degradado_sin_nombre_2-4" cx="-472.66" cy="466.63" r="4.6" gradientTransform="matrix(3.62, 0, 0, -3.62, 1827.8, 1788.1)" xlink:href="#Degradado_sin_nombre_2"/><clipPath id="clip-path-5"><path class="cls-1" d="M57.3,92.34c1.15,1.38,6.39,9.31,5.59,20.81S55.82,132,52.36,134.66C30.28,153.71,0,173.87,0,173.87l114.71-59L8.8,46.33s33,23.86,48.5,46"/></clipPath><radialGradient id="Degradado_sin_nombre_5" cx="-610.27" cy="503.74" r="4.6" gradientTransform="matrix(0, -13.01, -13.01, 0, 6597.3, -7855.68)" gradientUnits="userSpaceOnUse"><stop offset="0" stop-color="#acd3d9"/><stop offset="0.32" stop-color="#acd3d9"/><stop offset="0.54" stop-color="#92b6c7"/><stop offset="1" stop-color="#53719c"/></radialGradient><clipPath id="clip-path-6"><path class="cls-1" d="M25.2,110.45A16.2,16.2,0,1,0,42.45,95.58c-.38,0-.76,0-1.14,0A16.09,16.09,0,0,0,25.2,110.45"/></clipPath><radialGradient id="Degradado_sin_nombre_5-2" cx="-631.31" cy="404.01" r="4.6" gradientTransform="matrix(0, -3.5, -3.5, 0, 1456.99, -2100.26)" xlink:href="#Degradado_sin_nombre_5"/><clipPath id="clip-path-7"><path class="cls-1" d="M84.59,103.24a16.65,16.65,0,0,1,3,11A15.92,15.92,0,0,1,82,125.5c-11.71,10-27.76,20.62-27.76,20.62l60.84-31L58.84,79s17.53,12.56,25.74,24.22"/></clipPath><radialGradient id="Degradado_sin_nombre_5-3" cx="-618.81" cy="467.47" r="4.6" gradientTransform="matrix(0, -6.87, -6.87, 0, 3288.79, -4152.5)" xlink:href="#Degradado_sin_nombre_5"/><clipPath id="clip-path-8"><path class="cls-1" d="M98.92,108.88a8.8,8.8,0,0,1,1.57,5.77,8.39,8.39,0,0,1-2.94,6,177.07,177.07,0,0,1-14.63,10.87L115,115.15l-29.63-19s9.24,6.64,13.57,12.78"/></clipPath><radialGradient id="Degradado_sin_nombre_5-4" cx="-635.04" cy="398.56" r="4.6" gradientTransform="matrix(0, -3.62, -3.62, 0, 1538.47, -2193.44)" xlink:href="#Degradado_sin_nombre_5"/><clipPath id="clip-path-9"><path class="cls-1" d="M16.76,195s32.92-24,58.76-31.91c1.67-.66,10.83-3.2,21.52,1.11s15.7,12.55,17.19,16.67c11.29,26.89,21.11,61.91,21.11,61.91L114.74,115.43Z"/></clipPath><radialGradient id="Degradado_sin_nombre_10" cx="-566.88" cy="546.33" r="4.6" gradientTransform="matrix(13.38, 0, 0, -13.38, 7658.29, 7486.41)" gradientUnits="userSpaceOnUse"><stop offset="0" stop-color="#289348"/><stop offset="0.32" stop-color="#289348"/><stop offset="0.54" stop-color="#449d47"/><stop offset="1" stop-color="#88b444"/></radialGradient><clipPath id="clip-path-10"><path class="cls-1" d="M74,178.17a16,16,0,1,0,20.91-9A15.85,15.85,0,0,0,89,168a16.19,16.19,0,0,0-15,10.19"/></clipPath><radialGradient id="Degradado_sin_nombre_10-2" cx="-459.45" cy="561.81" r="4.6" gradientTransform="matrix(3.5, 0, 0, -3.5, 1698.7, 2152.66)" xlink:href="#Degradado_sin_nombre_10"/><clipPath id="clip-path-11"><path class="cls-1" d="M63.32,157.48s17.37-12.79,31-17a16.7,16.7,0,0,1,11.33.56,15.92,15.92,0,0,1,9,8.81c5.91,14.23,11,32.77,11,32.77l-10.67-67.43Z"/></clipPath><radialGradient id="Degradado_sin_nombre_10-3" cx="-531.66" cy="554.95" r="4.6" gradientTransform="matrix(7.06, 0, 0, -7.06, 3849.19, 4068.05)" xlink:href="#Degradado_sin_nombre_10"/><clipPath id="clip-path-12"><path class="cls-1" d="M87.77,137.54s9.16-6.74,16.34-9a8.8,8.8,0,0,1,6,.29,8.41,8.41,0,0,1,4.76,4.64,178.39,178.39,0,0,1,5.82,17.27L115,115.24Z"/></clipPath><radialGradient id="Degradado_sin_nombre_10-4" cx="-464.72" cy="571.31" r="4.6" gradientTransform="matrix(3.72, 0, 0, -3.72, 1834.19, 2259.78)" xlink:href="#Degradado_sin_nombre_10"/><clipPath id="clip-path-13"><path class="cls-1" d="M160.58,233.31s-12.69-38.72-12.2-65.74c-.11-1.79.3-11.29,7.71-20.13s16.78-11.06,21.16-11.2c29.06-2.42,65.4-1,65.4-1L115.2,115.56Z"/></clipPath><radialGradient id="Degradado_sin_nombre_13" cx="-616.83" cy="582.77" r="4.6" gradientTransform="matrix(-13.01, 0, 0, 13.01, -7854.36, -7417.12)" gradientUnits="userSpaceOnUse"><stop offset="0" stop-color="#53719c"/><stop offset="0.32" stop-color="#53719c"/><stop offset="0.69" stop-color="#405586"/><stop offset="1" stop-color="#2e3b71"/></radialGradient><clipPath id="clip-path-14"><path class="cls-1" d="M160.16,151a16.2,16.2,0,1,0,22.71-1.89,16.28,16.28,0,0,0-10.45-3.81,15.9,15.9,0,0,0-12.25,5.7"/></clipPath><radialGradient id="Degradado_sin_nombre_13-2" cx="-655.68" cy="697.54" r="4.6" gradientTransform="matrix(-3.5, 0, 0, 3.5, -2123.71, -2281.71)" xlink:href="#Degradado_sin_nombre_13"/><clipPath id="clip-path-15"><path class="cls-1" d="M139.3,177.45s-6.8-20.48-6.6-34.74a16.72,16.72,0,0,1,4-10.61,16,16,0,0,1,11.16-5.88c15.37-1.21,34.58-.35,34.58-.35l-67.43-10.7Z"/></clipPath><radialGradient id="Degradado_sin_nombre_13-3" cx="-631.23" cy="617.12" r="4.6" gradientTransform="matrix(-6.87, 0, 0, 6.87, -4192.51, -4098.66)" xlink:href="#Degradado_sin_nombre_13"/><clipPath id="clip-path-16"><path class="cls-1" d="M127.9,148s-3.58-10.79-3.47-18.31a8.81,8.81,0,0,1,2.13-5.59,8.43,8.43,0,0,1,5.89-3.1,178.75,178.75,0,0,1,18.22-.19l-35.54-5.63Z"/></clipPath><radialGradient id="Degradado_sin_nombre_13-4" cx="-658.61" cy="682.46" r="4.6" gradientTransform="matrix(-3.62, 0, 0, 3.62, -2254.56, -2342.56)" xlink:href="#Degradado_sin_nombre_13"/><clipPath id="clip-path-17"><path class="cls-1" d="M115.47,115.12l126-6.76s-40.74.1-66.29-8.72c-1.73-.45-10.64-3.79-16.75-13.55S153.1,66.72,154.3,62.5C161,34.11,173.62,0,173.62,0Z"/></clipPath><radialGradient id="Degradado_sin_nombre_17" cx="-569.13" cy="571.53" r="4.6" gradientTransform="matrix(0, 13.01, 13.01, 0, -7274.77, 7488.46)" gradientUnits="userSpaceOnUse"><stop offset="0" stop-color="#cd5b37"/><stop offset="0.32" stop-color="#cd5b37"/><stop offset="0.82" stop-color="#c83f36"/><stop offset="1" stop-color="#c63435"/></radialGradient><clipPath id="clip-path-18"><path class="cls-1" d="M168.28,61.14a16.13,16.13,0,1,0,8.64-2.5,16.1,16.1,0,0,0-8.64,2.5"/></clipPath><radialGradient id="Degradado_sin_nombre_18" cx="-478.5" cy="655.82" r="4.6" gradientTransform="matrix(0, 3.5, 3.5, 0, -2119.78, 1751.67)" gradientUnits="userSpaceOnUse"><stop offset="0" stop-color="#cd5c37"/><stop offset="0.32" stop-color="#cd5c37"/><stop offset="0.63" stop-color="#b2422c"/><stop offset="1" stop-color="#8d1e1c"/></radialGradient><clipPath id="clip-path-19"><path class="cls-1" d="M115.06,115.14l66.71-3.82s-21.57.15-35.07-4.46a16.71,16.71,0,0,1-8.83-7.11,16,16,0,0,1-2.14-12.44c3.59-15,10.34-33,10.34-33Z"/></clipPath><radialGradient id="Degradado_sin_nombre_19" cx="-540.91" cy="595.85" r="4.6" gradientTransform="matrix(0, 6.87, 6.87, 0, -3954.38, 3814.78)" gradientUnits="userSpaceOnUse"><stop offset="0" stop-color="#cd5c37"/><stop offset="0.32" stop-color="#cd5c37"/><stop offset="0.63" stop-color="#b3422c"/><stop offset="1" stop-color="#8f1e1c"/></radialGradient><clipPath id="clip-path-20"><path class="cls-1" d="M115.12,115.09l35.16-2s-11.37.07-18.49-2.35a8.79,8.79,0,0,1-4.65-3.75,8.42,8.42,0,0,1-1.13-6.55A176.81,176.81,0,0,1,131.46,83Z"/></clipPath><radialGradient id="Degradado_sin_nombre_20" cx="-456.17" cy="579.12" r="4.6" gradientTransform="matrix(3.66, 0, 0, -3.66, 1801.44, 2217.56)" gradientUnits="userSpaceOnUse"><stop offset="0" stop-color="#cd5c37"/><stop offset="0.32" stop-color="#cd5c37"/><stop offset="0.64" stop-color="#b8412c"/><stop offset="1" stop-color="#9d1e1d"/></radialGradient></defs><title>APEPS</title><path class="cls-2" d="M344.7,134.05H295.3L281,177.31H261.57L309,38.45h22.89l47.79,138.86H359.56Zm-45.58-14.84h41.76Q322.72,66.88,319.6,54.73q-4.42,17.21-20.48,64.48"/><path class="cls-2" d="M409.75,177.31V40.1a196,196,0,0,1,35.55-2.88q25.61,0,38.41,11.28t12.8,29.71q0,21.74-14.76,33.43t-38.66,11.69q-10.14,0-14.66-1.44v55.42ZM428.43,53.7v52.74q5.23,1.64,15.06,1.65,16.27,0,25.3-7.67t9-21.38q0-12.88-8.48-19.83T445.5,52.26a89.36,89.36,0,0,0-17.07,1.44"/><polygon class="cls-2" points="603.54 96.96 603.54 112.83 549.12 112.83 549.12 161.45 609.96 161.45 609.96 177.31 530.44 177.31 530.44 38.45 606.75 38.45 606.75 54.32 549.12 54.32 549.12 96.96 603.54 96.96"/><path class="cls-2" d="M642.9,177.31V40.1a195.83,195.83,0,0,1,35.54-2.88q25.61,0,38.4,11.28t12.81,29.71q0,21.74-14.76,33.43t-38.65,11.69q-10.15,0-14.66-1.44v55.42ZM661.57,53.7v52.74q5.22,1.64,15.06,1.65,16.27,0,25.3-7.67T711,79q0-12.88-8.49-19.83t-23.85-6.95a89.27,89.27,0,0,0-17.07,1.44"/><path class="cls-2" d="M756.75,170.3l4.82-15.86a61.65,61.65,0,0,0,32.74,9.27q13.25,0,21-6.28T823,140.64q0-9.69-6.12-15.81t-20.19-11q-19.27-6.79-28.21-16.37a32.76,32.76,0,0,1-8.94-23.18A34.33,34.33,0,0,1,772.21,47q12.65-10.76,32.73-10.77,19.27,0,31.33,7l-5,15.45q-11.65-6.8-26.91-6.8-12.26,0-19.08,5.92a18.46,18.46,0,0,0-6.83,14.47,19.11,19.11,0,0,0,5.83,14.32q5.82,5.66,21.89,11.64,19.27,7.2,27.51,16.84t8.24,24.16q0,17.82-13,29.1t-36.05,11.28A80,80,0,0,1,773.12,177q-10.14-2.57-16.37-6.7"/><g class="cls-3"><rect class="cls-4" x="-1.31" y="-33.19" width="173.91" height="173.91" transform="translate(-12.93 76.31) rotate(-45)"/></g><g class="cls-5"><rect class="cls-6" x="71.09" y="20.2" width="49.14" height="49.14" transform="translate(-3.63 80.76) rotate(-45)"/></g><g class="cls-7"><rect class="cls-8" x="53.49" y="36.9" width="91.83" height="91.83" transform="translate(-29.44 94.54) rotate(-45)"/></g><g class="cls-9"><rect class="cls-10" x="82.57" y="73.82" width="48.4" height="48.4" transform="translate(-38.04 104.21) rotate(-45)"/></g><g class="cls-11"><rect class="cls-12" x="-22.7" y="27.24" width="160.11" height="165.72" transform="translate(-43.73 38.04) rotate(-27)"/></g><g class="cls-13"><rect class="cls-14" x="19" y="89.71" width="44.7" height="44.3" transform="translate(-46.27 30.97) rotate(-27)"/></g><g class="cls-15"><rect class="cls-16" x="42.3" y="68.87" width="84.67" height="87.41" transform="translate(-41.88 50.7) rotate(-27)"/></g><g class="cls-17"><rect class="cls-18" x="76.63" y="90.75" width="44.63" height="46.08" transform="translate(-40.88 57.32) rotate(-27)"/></g><g class="cls-19"><rect class="cls-20" x="16.76" y="115.43" width="118.59" height="127.31"/></g><g class="cls-21"><rect class="cls-22" x="70.68" y="167.99" width="36.41" height="34.51"/></g><g class="cls-23"><rect class="cls-24" x="63.32" y="115.17" width="62.39" height="67.43"/></g><g class="cls-25"><rect class="cls-26" x="87.77" y="115.24" width="32.89" height="35.55"/></g><g class="cls-27"><rect class="cls-28" x="110.81" y="102.28" width="136.23" height="144.3" transform="translate(-21.34 323.88) rotate(-81)"/></g><g class="cls-29"><rect class="cls-30" x="152.89" y="141.81" width="39.37" height="41.09" transform="translate(-14.77 307.42) rotate(-81)"/></g><g class="cls-31"><rect class="cls-32" x="112.75" y="108.15" width="72.05" height="76.34" transform="translate(-19.02 270.37) rotate(-81)"/></g><g class="cls-33"><rect class="cls-34" x="113.91" y="111.51" width="37.97" height="40.23" transform="translate(-17.9 242.3) rotate(-81)"/></g><g class="cls-35"><rect class="cls-36" x="98.58" y="-24.71" width="159.78" height="164.53" transform="translate(46.16 190.44) rotate(-63)"/></g><g class="cls-37"><rect class="cls-38" x="153.09" y="51.61" width="47.38" height="48.45" transform="translate(28.95 198.92) rotate(-63)"/></g><g class="cls-39"><rect class="cls-40" x="106.17" y="41.2" width="84.48" height="87.05" transform="translate(5.54 178.5) rotate(-63)"/></g><g class="cls-41"><rect class="cls-42" x="115.12" y="83.03" width="35.16" height="32.06"/></g></svg>