<svg id="Capa_1" data-name="Capa 1" xmlns="http://www.w3.org/2000/svg" viewBox="0 0 841.89 196.79"><defs><style>.cls-1{fill:#5da77b;}.cls-2,.cls-3{fill:#392c67;}.cls-3{font-size:172.84px;font-family:Roboto-Bold,Roboto;font-weight:700;}.cls-4{letter-spacing:0.02em;}.cls-5{letter-spacing:0.01em;}.cls-6{letter-spacing:0.01em;}.cls-7{letter-spacing:0.01em;}.cls-8{letter-spacing:0em;}</style></defs><title>APESEG</title><path class="cls-1" d="M71.28,0A71.27,71.27,0,0,0,36.39,133.43l24.32-26.32a37.36,37.36,0,1,1,45.44-49.19l24.33-26.34A71.21,71.21,0,0,0,71.28,0"/><path class="cls-2" d="M142.56,120a71.24,71.24,0,0,0-36.39-62.15L81.86,84.21a37.36,37.36,0,1,1-45.45,49.2L12.08,159.75A71.28,71.28,0,0,0,142.56,120"/><text class="cls-3" transform="translate(187.38 154.59)"><tspan class="cls-4">A</tspan><tspan class="cls-5" x="119.58" y="0">P</tspan><tspan class="cls-6" x="232.62" y="0">E</tspan><tspan class="cls-7" x="331.75" y="0">S</tspan><tspan class="cls-8" x="439.38" y="0">E</tspan><tspan x="536.78" y="0">G</tspan></text></svg>