<svg id="Capa_1" data-name="Capa 1" xmlns="http://www.w3.org/2000/svg" viewBox="0 0 1024 1024"><defs><style>.cls-1{fill:#00af79;}.cls-2{fill:#3c2869;}</style></defs><path class="cls-1" d="M134.21,403.55A80.81,80.81,0,0,0,94.66,554.82L122.23,525a42.36,42.36,0,1,1,51.52-55.77l27.58-29.86A80.73,80.73,0,0,0,134.21,403.55Z"/><path class="cls-2" d="M215,539.64a80.77,80.77,0,0,0-41.25-70.45L146.21,499A42.36,42.36,0,1,1,94.68,554.8L67.1,584.65a80.81,80.81,0,0,0,147.92-45Z"/><path class="cls-2" d="M399.87,578.81H365.38l-9.6-27.23h-48.2L298,578.81H265.05L316,443.41h32.92Zm-51.34-51.92-16.85-48.6-16.85,48.6Z"/><path class="cls-2" d="M496.64,518.66c-9,7.44-21.36,10.19-35.27,10.19H444.72v50H413V443.61h48.4c13.91,0,26.26,2.74,35.27,10.19s14.11,17.83,14.11,32.33S505.66,511,496.64,518.66Zm-24.49-46.84c-3.92-2.74-8.43-3.72-15.28-3.72H444.52v36.25h12.35c6.85,0,11.36-1,15.28-3.72,3.72-2.75,6.47-7.64,6.47-14.5S475.87,474.57,472.15,471.82Z"/><path class="cls-2" d="M615.46,578.81H526.11V443.61H613.7v25.27h-56v27.63h52.9v25.28h-52.9v31.35h57.8Z"/><path class="cls-2" d="M712.59,570c-9.6,7.65-22.14,11.17-36.64,11.17-19.6,0-37-10.18-48-20.38l15.68-23.12c9.79,10.19,24.88,17.05,35.27,17.05,10.19,0,18-4.9,18-13.91,0-9.21-10-12.74-15.88-14.89s-16.06-5.69-20.57-7.65c-3.33-1.56-10.19-4.11-16.07-9.79-5.88-5.49-10.58-13.33-10.58-26.07a38,38,0,0,1,14.11-29.58c7.64-6.47,20-10.78,35.66-10.78s33.7,7.45,42.91,16.65L713,480.84c-7.84-7.84-20-13.72-30.17-13.72s-17.64,3.92-17.64,12.15,7.64,11.36,13.72,13.72c5.88,2.35,15.87,5.87,20.18,7.64,3.72,1.37,12.74,4.9,18.81,11a35.37,35.37,0,0,1,10.58,26.06A40.92,40.92,0,0,1,712.59,570Z"/><path class="cls-2" d="M837.76,578.81H748.4V443.61H836v25.27H780v27.63h52.91v25.28H780v31.35h57.81Z"/><path class="cls-2" d="M982.39,557.85c-6.86,6.07-22.93,23.12-60.16,23.12-37.43,0-70.35-24.69-70.35-69.76s32.92-69.56,70.74-69.56c35.86,0,51.34,18.81,55.65,23.51l-21,18.22c-5.68-6.27-16.26-15.48-34.68-15.48-21.75,0-38.6,15.88-38.6,43.31s17.24,43.3,39.19,43.3,28.22-8.62,28.22-8.62v-20H923V501.8h59.38Z"/></svg>