<svg id="Capa_1" data-name="Capa 1" xmlns="http://www.w3.org/2000/svg" viewBox="0 0 642.83 595.28"><defs><style>.cls-1{fill:#5a97a7;}</style></defs><title>Farma</title><path class="cls-1" d="M360.09,161.05a22.28,22.28,0,0,0-22.21-22.21H315.67a5.57,5.57,0,0,0-5.56,5.55V211a5.55,5.55,0,0,0,11.11,0V183.27H334.9L353.42,211l-20.16,30.24a5.55,5.55,0,1,0,9.24,6.16L360.09,221l17.59,26.39a5.55,5.55,0,1,0,9.24-6.16L366.76,211l20.16-30.24a5.55,5.55,0,1,0-9.24-6.16L360.09,201l-13.16-19.74a22.26,22.26,0,0,0,13.16-20.23m-22.21,11.11H321.22V149.95h16.66a11.11,11.11,0,0,1,0,22.21"/><path class="cls-1" d="M243.47,111.07a33.32,33.32,0,1,0-33.31-33.31,33.32,33.32,0,0,0,33.31,33.31M227.76,62a22.21,22.21,0,0,1,22.34-5.49,2.27,2.27,0,0,1,.91.55,2.22,2.22,0,0,1-1,3.71c-4.76,1.32-9.88,4.55-14.41,9.09s-7.77,9.65-9.09,14.42a2.23,2.23,0,0,1-2.1,1.63,2.26,2.26,0,0,1-1.61-.65,2.3,2.3,0,0,1-.55-.91A22.2,22.2,0,0,1,227.76,62"/><path class="cls-1" d="M243.47,199.92a33.32,33.32,0,1,0-33.31-33.31,33.32,33.32,0,0,0,33.31,33.31m-15.71-49a22.21,22.21,0,0,1,22.34-5.49,2.27,2.27,0,0,1,.91.55,2.22,2.22,0,0,1-1,3.71c-4.76,1.32-9.88,4.55-14.41,9.09s-7.77,9.65-9.09,14.42a2.22,2.22,0,0,1-3.71,1,2.3,2.3,0,0,1-.55-.91,22.2,22.2,0,0,1,5.49-22.34"/><path class="cls-1" d="M210.15,311a22.24,22.24,0,0,1-22.21-22.21V44.43a22.24,22.24,0,0,1,22.21-22.21H299a32.73,32.73,0,0,1,2-11.1H210.15a33.42,33.42,0,0,0-33.32,33.32V288.78a33.42,33.42,0,0,0,33.32,33.32h15A38.43,38.43,0,0,1,221.82,311Z"/><path class="cls-1" d="M443.39,33.77V22.21A22.28,22.28,0,0,0,421.18,0H332.32a22.29,22.29,0,0,0-22.22,22.21V33.77A13.15,13.15,0,0,0,299,46.66V75.53a13.15,13.15,0,0,0,11.1,12.88v33.77h75A13.88,13.88,0,0,1,399,136.07V252.69a13.88,13.88,0,0,1-13.89,13.88H315.66a38.93,38.93,0,0,1,38.87,38.88,38.35,38.35,0,0,1-3.9,16.66h65a27.76,27.76,0,0,0,27.77-27.76V88.41A13.16,13.16,0,0,0,454.5,75.53V46.66a13.16,13.16,0,0,0-11.11-12.88m-122.17,44h-6.11a5,5,0,0,1-5-5V49.43a5,5,0,0,1,5-5h6.11Zm25,0H332.32V44.43h13.89Zm25,0H357.31V44.43H371.2Zm25,0H382.3V44.43h13.89Zm-75-44.43V22.21a11.11,11.11,0,0,1,11.1-11.1h88.86a11.12,11.12,0,0,1,11.11,11.1V33.33Zm100,44.43H407.29V44.43h13.89Zm22.21-5a5,5,0,0,1-5,5h-6.11V44.43h6.11a5,5,0,0,1,5,5Z"/><path class="cls-1" d="M253,267.29a39,39,0,0,1,7.14-.72H300.8a27.62,27.62,0,0,0-4-5.19l-39.27-39.27a27.77,27.77,0,0,0-39.26,39.27L233.86,277a39.3,39.3,0,0,1,9.36-6.36l-17.09-17.08A16.66,16.66,0,1,1,249.69,230l18.11,18.11c-1.24,4.52-4.35,9.77-9.07,14.48a41,41,0,0,1-5.73,4.73"/><path class="cls-1" d="M315.67,277.68H260.13a27.76,27.76,0,1,0,0,55.53h55.54a27.76,27.76,0,0,0,0-55.53M285.73,322.1h-25.6a16.66,16.66,0,1,1,0-33.32h25.6c2.33,4.08,3.83,10,3.83,16.66s-1.5,12.59-3.83,16.66"/><polygon class="cls-1" points="63.24 512.87 23.25 512.87 23.25 553.06 0 553.06 0 453.18 70.25 453.18 70.25 471.02 23.25 471.02 23.25 495.03 63.24 495.03 63.24 512.87"/><path class="cls-1" d="M129.78,533.65H98.3l-5.63,19.41H69.35l32.23-99.86h24.9l32.31,99.86H135.47Zm-26.34-17.84h21.19L114.2,480.07h-.41Z"/><path class="cls-1" d="M189.11,514.79v38.27H165.86V453.18h38.41q17.34,0,27.5,8t10.16,21.94a21.88,21.88,0,0,1-4.09,13.31q-4.08,5.56-12,9.06,9.2,2.6,13.21,8.67t4,15.13v6.3a39.68,39.68,0,0,0,1.17,8.92q1.16,5,4,7.13v1.38H224.36q-2.74-2.12-3.59-7.55a63.86,63.86,0,0,1-.86-10v-6q0-7.13-3.77-10.9t-11-3.77Zm0-17.83H204.4q7,0,10.7-3.19t3.71-9.16a13.15,13.15,0,0,0-3.81-9.84Q211.19,471,204.28,471H189.11Z"/><polygon class="cls-1" points="289.05 453.19 311.41 523.09 311.83 523.09 334.46 453.19 365.05 453.19 365.05 553.06 341.8 553.06 341.8 528.29 344 482.68 343.58 482.62 319.51 553.06 303.87 553.06 280.06 483.23 279.64 483.3 281.84 528.29 281.84 553.06 258.59 553.06 258.59 453.19 289.05 453.19"/><path class="cls-1" d="M435,533.65H403.54l-5.63,19.41H374.59l32.24-99.86h24.9L464,553.05H440.71Zm-26.33-17.84h21.18l-10.42-35.73H419Z"/><path class="cls-1" d="M559.56,595.28A83.27,83.27,0,1,1,642.83,512a83.36,83.36,0,0,1-83.27,83.27m0-156.09A72.82,72.82,0,1,0,632.37,512a72.9,72.9,0,0,0-72.82-72.82"/><path class="cls-1" d="M497.58,509.64a6.15,6.15,0,0,1-.64,0,5.23,5.23,0,0,1-4.56-5.82,67.54,67.54,0,0,1,53.28-58A5.22,5.22,0,0,1,547.81,456a57.1,57.1,0,0,0-45,49,5.22,5.22,0,0,1-5.19,4.6"/><path class="cls-1" d="M587.36,573.16a5.23,5.23,0,0,1-2.34-9.91,57.71,57.71,0,0,0,25.6-25.42,5.23,5.23,0,1,1,9.32,4.73,68.23,68.23,0,0,1-30.26,30,5.2,5.2,0,0,1-2.32.54"/><path class="cls-1" d="M547.85,556.26h0a5.2,5.2,0,0,1-3.7-1.53l-31.22-31.22a5.23,5.23,0,0,1,0-7.4l15.61-15.61a5.22,5.22,0,0,1,7.39,0l11.91,11.91,39.23-39.23a5.22,5.22,0,0,1,7.39,0l15.61,15.61a5.23,5.23,0,0,1,0,7.39l-58.53,58.53a5.21,5.21,0,0,1-3.69,1.53M524,519.82l23.82,23.82L599,492.5l-8.22-8.22-39.23,39.23a5.23,5.23,0,0,1-7.39,0L532.24,511.6Z"/></svg>