<svg id="Capa_1" data-name="Capa 1" xmlns="http://www.w3.org/2000/svg" viewBox="0 0 1024 1024"><defs><style>.cls-1{fill:#37c2d1;}</style></defs><polygon class="cls-1" points="150.24 494.67 92.17 494.67 92.17 553.01 58.42 553.01 58.42 408.02 160.4 408.02 160.4 433.92 92.17 433.92 92.17 468.77 150.24 468.77 150.24 494.67"/><path class="cls-1" d="M246.83,524.83H201.12L193,553H159.1l46.79-145H242l46.9,145H255.09Zm-38.24-25.89h30.77l-15.15-51.88h-.59Z"/><path class="cls-1" d="M333,497.45V553H299.21V408H355q25.18,0,39.92,11.66t14.75,31.86a31.75,31.75,0,0,1-5.94,19.32q-5.93,8.07-17.48,13.15,13.35,3.78,19.17,12.59t5.83,22v9.15a57.15,57.15,0,0,0,1.7,12.95c1.12,4.85,3.08,8.29,5.87,10.35v2H384.14c-2.65-2.06-4.4-5.71-5.22-11a92.23,92.23,0,0,1-1.25-14.53v-8.77q0-10.35-5.47-15.83t-16-5.48Zm0-25.89h22.2q10.17,0,15.53-4.63t5.38-13.3q0-8.85-5.52-14.28T355,433.92H333Z"/><polygon class="cls-1" points="478.05 408.03 510.51 509.5 511.11 509.5 543.97 408.03 588.38 408.03 588.38 553.02 554.63 553.02 554.63 517.07 557.82 450.84 557.21 450.76 522.26 553.02 499.56 553.02 465 451.65 464.39 451.74 467.58 517.07 467.58 553.02 433.83 553.02 433.83 408.03 478.05 408.03"/><path class="cls-1" d="M690,524.83H644.26L636.09,553H602.23L649,408h36.15l46.9,145H698.22Zm-38.23-25.89h30.76l-15.13-51.88h-.6Z"/><path class="cls-1" d="M859.73,584.9A102.13,102.13,0,1,1,961.86,482.77,102.24,102.24,0,0,1,859.73,584.9m0-191.44A89.31,89.31,0,1,0,949,482.77a89.41,89.41,0,0,0-89.31-89.31"/><path class="cls-1" d="M838,547.89h0a7.53,7.53,0,0,1-5.37-2.22l-45.32-45.32a7.59,7.59,0,0,1,0-10.73L810,467a7.57,7.57,0,0,1,10.73,0L838,484.25,895,427.31a7.57,7.57,0,0,1,10.73,0L928.38,450a7.6,7.6,0,0,1,0,10.74l-85,85a7.56,7.56,0,0,1-5.36,2.22M803.45,495,838,529.57l74.24-74.24L900.35,443.4l-57,57a7.57,7.57,0,0,1-10.73,0l-17.29-17.29Z"/></svg>