<?xml version="1.0" standalone="no"?>
<!DOCTYPE svg PUBLIC "-//W3C//DTD SVG 20010904//EN"
 "http://www.w3.org/TR/2001/REC-SVG-20010904/DTD/svg10.dtd">
<svg version="1.0" xmlns="http://www.w3.org/2000/svg"
 width="551.000000pt" height="425.000000pt" viewBox="0 0 551.000000 425.000000"
 preserveAspectRatio="xMidYMid meet">

<g transform="translate(0.000000,425.000000) scale(0.100000,-0.100000)"
fill="#37C2D1" stroke="none">
<path d="M2355 4134 c-251 -38 -441 -93 -632 -184 -582 -278 -982 -797 -1114
-1448 -25 -125 -36 -435 -20 -581 50 -454 237 -850 561 -1185 172 -178 344
-302 573 -411 673 -322 1466 -237 2072 223 145 111 338 320 448 487 400 608
434 1430 85 2060 -299 538 -770 885 -1373 1011 -103 22 -152 26 -345 29 -124
2 -238 1 -255 -1z m575 -407 c320 -77 584 -227 811 -464 219 -229 340 -454
421 -788 20 -79 23 -117 23 -320 0 -253 -5 -296 -61 -487 -182 -628 -762
-1102 -1404 -1150 -313 -23 -575 23 -836 147 -129 61 -230 124 -329 206 -288
237 -474 538 -561 909 -31 132 -44 426 -25 573 59 440 276 813 636 1088 190
146 444 259 658 294 51 8 103 17 117 19 14 2 120 3 235 1 182 -3 224 -6 315
-28z"/>
<path d="M2839 3285 c-161 -59 -241 -229 -175 -370 44 -96 114 -135 238 -135
122 1 204 46 270 149 25 40 28 54 28 127 0 76 -2 85 -32 130 -37 54 -82 89
-137 104 -50 14 -149 11 -192 -5z"/>
<path d="M2470 2526 c-36 -12 -81 -31 -100 -41 -57 -29 -203 -132 -234 -164
l-29 -31 19 -36 c10 -19 23 -38 27 -41 4 -2 31 13 60 35 126 95 175 113 212
75 31 -30 13 -96 -99 -368 -252 -610 -286 -790 -172 -900 69 -67 170 -89 297
-65 127 24 337 154 502 311 l91 85 -17 37 c-10 20 -24 37 -31 37 -6 0 -55 -34
-107 -75 -98 -79 -117 -89 -165 -83 -28 3 -29 6 -32 60 -4 67 3 87 159 503
l112 300 4 105 c3 95 2 109 -19 145 -30 50 -109 110 -164 124 -77 20 -241 13
-314 -13z"/>
</g>
</svg>
